<?xml version="1.0"?>
<svg width="1004" height="799" xmlns="http://www.w3.org/2000/svg" xmlns:svg="http://www.w3.org/2000/svg" version="1.1">
 <g class="layer">
  <title>Layer 1</title>
  <g id="svg_4">
   <path d="m290.54,345.58l0.06,95.86l2.6,3.72l2.63,3.72l80.89,-0.79l80.89,-0.79l0.88,-49.03l0.91,-49.03l-27.68,0l-27.64,0l0,24.88l0,24.88l-29.2,0l-29.2,0l0,-74.64l0,-74.64l-27.58,0l-27.58,0l0.03,95.86m389.31,-21.22l0,74.64l-29.2,0l-29.2,0l0,-24.88l0,-24.88l-26.99,0l-26.99,0l0.65,44.64l0.65,44.64l0.39,5.12l0.39,5.12l82.74,0l82.74,0l0,-99.52l0,-99.52l-27.58,0l-27.58,0l0,74.64m-334.19,199.04l0,24.88l-25.96,0l-25.96,0l0,49.76l0,49.76l55.16,0l55.16,0l0,24.88l0,24.88l27.58,0l27.58,0l0,49.76l0,49.76l53.53,0l53.53,0l0,-49.76l0,-49.76l27.58,0l27.58,0l0,-24.88l0,-24.88l55.16,0l55.16,0l0,-49.76l0,-49.76l-25.96,0l-25.96,0l0,-24.88l0,-24.88l-167.09,0l-167.09,0l0,24.88" fill="#d1b879" fill-rule="evenodd" id="svg_1"/>
   <path d="m404.06,0.2l0,2.2l111.94,0l111.94,0l0,-2.2l0,-2.2l-111.94,0l-111.94,0l0,2.2m-41.37,49.73l15.41,1.08l15.41,-1.08l15.41,-1.11l-30.82,0l-30.82,0l15.41,1.11m271.73,-0.35l8.11,0.94l20.28,0.82l20.28,0.82l0,-2.2l0,-2.2l-28.39,0.44l-28.39,0.44l8.11,0.94m-326.89,50.11l15.41,1.08l15.41,-1.08l15.41,-1.11l-30.82,0l-30.82,0l15.41,1.11m382.04,-0.35l8.11,0.94l20.28,0.82l20.28,0.82l0,-2.2l0,-2.2l-28.39,0.44l-28.39,0.44l8.11,0.94m-437.2,50.11l15.41,1.08l15.41,-1.08l15.41,-1.11l-30.82,0l-30.82,0l15.41,1.11m499.75,0l15.51,1.08l13.69,-1.11l13.69,-1.11l-29.2,0.03l-29.2,0l15.51,1.11m-541.12,47.77l-29.2,1.64l28.39,0.56l28.39,0.56l0,24.88l0,24.88l56.78,0l56.78,0l0,74.64l0,74.64l25.96,0l25.96,0l0,-24.88l0,-24.88l111.94,0l111.94,0l0,24.88l0,24.88l25.96,0l25.96,0l0,-74.64l0,-74.64l56.78,0l56.78,0l0,-24.88l0,-24.88l28.13,0l28.1,0l-1.56,-1.43l-1.59,-1.43l-81.7,1.9l-81.7,1.9l0,15.28l0,15.25l-2.01,9.16l-2.04,9.13l-25.53,0l-25.57,0l-0.03,18.29l-0.06,18.29l-1.95,6.59l-1.95,6.59l-107.95,0l-107.95,0l-1.95,-6.59l-1.95,-6.59l-0.06,-18.29l-0.03,-18.29l-25.5,0l-25.53,0l-2.04,-13.58l-2.08,-13.58l0,-11.3l0,-11.3l-53.28,0l-53.24,0l-1.1,-2.2l-1.07,-2.2l-29.2,1.64m-68.85,51.75l15.51,1.08l13.69,-1.11l13.69,-1.11l-29.2,0.03l-29.2,0l15.51,1.11m720.28,0l15.51,1.08l13.69,-1.11l13.69,-1.11l-29.2,0.03l-29.2,0l15.51,1.11m-775.44,99.52l15.51,1.08l13.69,-1.11l13.69,-1.11l-29.2,0.03l-29.2,0l15.51,1.11m830.6,0l15.51,1.08l13.69,-1.11l13.69,-1.11l-29.2,0.03l-29.2,0l15.51,1.11m-844.49,150.77l0,2.2l28.39,-0.44l28.39,-0.44l-8.11,-0.94l-8.11,-0.94l-20.28,-0.82l-20.28,-0.82l0,2.2m844.49,1.43l15.51,1.08l13.69,-1.11l13.69,-1.11l-29.2,0.03l-29.2,0l15.51,1.11m-789.33,48.32l0,2.2l83.55,-0.61l83.55,-0.61l-29.2,-0.82l-29.2,-0.85l-54.35,-0.73l-54.35,-0.76l0,2.2m691.08,-0.73l-82.74,1.61l83.55,0.67l83.55,0.64l0,-2.93l0,-2.93l-0.81,0.64l-0.81,0.67l-82.74,1.61m-635.93,71.71l0,24.88l-27.58,0l-27.58,0l0,52.69l0,52.69l27.58,0l27.58,0l0,24.88l0,24.88l332.56,0l332.56,0l0,-24.88l0,-24.88l27.58,0l27.58,0l0,-52.69l0,-52.69l-27.58,0l-27.58,0l0,-24.88l0,-24.88l-55.16,0l-55.16,0l0,26.34l0,26.34l-55.16,0l-55.16,0l0,24.88l0,24.88l-27.58,0l-27.58,0l0,49.76l0,49.76l-56.78,0l-56.78,0l0,-49.76l0,-49.76l-27.58,0l-27.58,0l0,-24.88l0,-24.88l-55.16,0l-55.16,0l0,-26.34l0,-26.34l-55.16,0l-55.16,0l0,24.88" fill="#040404" fill-rule="evenodd" id="svg_2"/>
   <path d="m405.33,5.11l-1.82,4.24l1.1,20.66l1.07,20.66l-28.62,0l-28.65,0l1.07,24.88l1.04,24.88l-28.62,0l-28.65,0l1.07,24.88l1.04,24.88l-28.39,0l-28.39,0l0,20.25l0,20.25l1.98,4.62l1.95,4.62l53.21,0l53.18,0l0.32,16.83l0.29,16.83l0.32,81.96l0.29,81.96l1.07,-73.91l1.04,-73.91l25.92,0l25.89,0l0.03,18.29l0.06,18.29l1.95,6.59l1.95,6.59l107.95,0l107.95,0l1.95,-6.59l1.95,-6.59l0.06,-18.29l0.03,-18.29l25.89,0l25.92,0l1.01,73.91l1.04,73.91l0.42,-79.03l0.42,-79.03l0.23,-19.76l0.23,-19.76l55.16,0l55.16,0l0,24.88l0,24.88l-27.58,0l-27.58,0l0,99.52l0,99.52l-82.35,0l-82.38,0l-1.65,-7.93l-1.69,-7.96l1.17,-23.5l1.17,-23.53l-1.95,-18.29l-1.95,-18.29l-52.98,0l-53.02,0l-0.91,49.03l-0.88,49.03l-80.89,0.79l-80.89,0.79l-2.63,-3.72l-2.6,-3.72l-0.06,-95.86l-0.03,-95.86l-27.58,0l-27.58,0l0,-24.88l0,-24.88l-27.58,0l-27.58,0l0,24.88l0,24.88l-27.58,0l-27.58,0l0,49.76l0,49.76l-27.64,0l-27.61,0l0.84,73.91l0.88,73.91l26.64,0.85l26.64,0.85l0.94,24.03l0.94,24.03l81.86,0.79l81.83,0.76l0.97,50.46l0.97,50.43l0.71,-50.49l0.75,-50.49l25.96,0l25.96,0l0,-24.88l0,-24.88l167.09,0l167.09,0l0,24.88l0,24.88l25.89,0l25.86,0l0.97,50.49l0.97,50.49l0.71,-50.43l0.75,-50.46l81.92,-0.76l81.92,-0.79l0.94,-24.15l0.94,-24.15l27.45,0l27.45,0l0,-74.64l0,-74.64l-27.58,0l-27.58,0l0,-49.76l0,-49.76l-27.58,0l-27.58,0l0,-24.88l0,-24.88l-27.58,0l-27.58,0l0,-24.88l0,-24.88l-27.45,0l-27.45,0l-0.94,-24.15l-0.94,-24.15l-26.64,-0.85l-26.64,-0.85l-0.94,-24.03l-0.94,-24.03l-26.64,-0.85l-26.64,-0.85l-0.94,-24.03l-0.94,-24.03l-109.6,-0.76l-109.57,-0.79l-1.82,4.27m-0.1,369.01l-0.03,26.34l1.23,-12.35l1.23,-12.35l-1.2,-13.99l-1.23,-13.99l0,26.34m220.63,0l-0.03,26.34l1.23,-12.35l1.23,-12.35l-1.2,-13.99l-1.23,-13.99l0,26.34m-220.63,298.55l-0.03,26.34l1.23,-12.35l1.23,-12.35l-1.2,-13.99l-1.23,-13.99l0,26.34m220.63,0l-0.03,26.34l1.23,-12.35l1.23,-12.35l-1.2,-13.99l-1.23,-13.99l0,26.34m-165.31,74.64l0,51.22l1.1,-25.61l1.07,-25.61l-1.07,-25.61l-1.1,-25.61l0,51.22m110.31,0l0,51.22l1.1,-25.61l1.07,-25.61l-1.07,-25.61l-1.1,-25.61l0,51.22" fill="#ad6332" fill-rule="evenodd" id="svg_3"/>
  </g>
 </g>
</svg>