<svg xmlns="http://www.w3.org/2000/svg" width="1280" height="1176" viewBox="0 0 1280 1176" version="1.1"><path d="M 257 210.989 L 257 252.978 214.750 253.239 L 172.500 253.500 172.500 378.500 L 172.500 503.500 257.250 503.756 L 342 504.011 342 461.506 L 342 419 426.500 419 L 511 419 511 378.500 L 511 338 468.500 338 L 426 338 426 296 L 426 254 468.500 254 L 511 254 511 211.500 L 511 169 384 169 L 257 169 257 210.989 M 684.478 253.500 L 684.478 338.500 684.750 295.675 L 685.022 252.850 684.750 210.675 L 684.478 168.500 684.478 253.500 M 257.244 336.250 L 257.500 418.500 299.750 418.761 L 342 419.022 342 336.511 L 342 254 299.494 254 L 256.988 254 257.244 336.250 M 789.750 338.749 L 811 339.040 832.250 338.749 L 853.500 338.458 811 338.458 L 768.500 338.458 789.750 338.749 M 853 418.500 L 853 419 853.500 419 L 854 419 854 418.500 L 854 418 853.500 418 L 853 418 853 418.500 M 684.484 461.250 L 684.500 503.500 811.500 503.506 L 938.500 503.512 811.761 503.252 L 685.022 502.992 684.744 460.996 L 684.467 419 684.484 461.250 M 1022 419.500 L 1022 420 1022.500 420 L 1023 420 1023 419.500 L 1023 419 1022.500 419 L 1022 419 1022 419.500 M 1022.457 461.500 L 1022.456 502.500 1022.749 482.317 L 1023.041 462.134 1022.749 441.317 L 1022.457 420.500 1022.457 461.500 M 1195.667 587.667 L 1195 588.333 1195 630.167 L 1195 672 1153 672 L 1111 672 1111 839.500 L 1111 1007 1195.494 1007 L 1279.989 1007 1280.332 1090.750 L 1280.675 1174.500 1280.338 1047.084 L 1280 919.668 1280 753.334 L 1280 587 1238.167 587 L 1196.333 587 1195.667 587.667 M 426 588.500 L 426 589 426.500 589 L 427 589 427 588.500 L 427 588 426.500 588 L 426 588 426 588.500 M 853 588.500 L 853 589 853.500 589 L 854 589 854 588.500 L 854 588 853.500 588 L 853 588 853 588.500 M 426.456 630 L 426.456 670.500 426.749 650.250 L 427.041 630 426.749 609.750 L 426.456 589.500 426.456 630 M 853.457 630.500 L 853.456 671.500 853.749 651.317 L 854.041 631.134 853.749 610.317 L 853.457 589.500 853.457 630.500 M 426.860 672.261 L 427.622 673.022 470.061 672.760 L 512.500 672.499 469.299 671.999 L 426.099 671.500 426.860 672.261 M 790.318 672.749 L 812.135 673.039 833.318 672.749 L 854.500 672.458 811.500 672.458 L 768.500 672.459 790.318 672.749 M 853 757.500 L 853 758 853.500 758 L 854 758 854 757.500 L 854 757 853.500 757 L 853 757 853 757.500 M 88 966 L 88 1006 44.500 1006 L 1 1006 1 1091 L 1 1176 87 1176 L 173 1176 173 1134 L 173 1092 215 1092 L 257 1092 257 1009 L 257 926 172.500 926 L 88 926 88 966" stroke="none" fill="#854121" fill-rule="evenodd"/><path d="M 854 799.500 L 854 841 896 841 L 938 841 938 799.500 L 938 758 896 758 L 854 758 854 799.500 M 600 884 L 600 926 642 926 L 684 926 684 884 L 684 842 642 842 L 600 842 600 884" stroke="none" fill="#f5eb41" fill-rule="evenodd"/><path d="M 937.239 42.250 L 937.500 84.500 979.750 84.761 L 1022 85.022 1022 127.011 L 1022 169 1109 169 L 1196 169 1196 84.500 L 1196 0 1066.489 0 L 936.978 0 937.239 42.250 M 511 211.500 L 511 254 468.500 254 L 426 254 426 296 L 426 338 468.500 338 L 511 338 511 378.500 L 511 419 426.500 419 L 342 419 342 336.500 L 342 254 299.494 254 L 256.988 254 257.244 336.250 L 257.500 418.500 299.750 418.761 L 342 419.022 342 503.511 L 342 588 640 588 L 938 588 938 546.004 L 938 504.008 811.250 503.754 L 684.500 503.500 684.239 461.250 L 683.978 419 726.489 419 L 769 419 769 378.500 L 769 338 810.989 338 L 852.977 338 853.239 378.250 L 853.500 418.500 982.250 418.754 L 1111 419.008 1111 378.504 L 1111 338 1067 338 L 1023 338 1023 296.124 L 1023 254.249 938.500 253.503 L 854 252.757 854 210.879 L 854 169 811.500 169 L 769 169 769 253.500 L 769 338 726.500 338 L 684 338 684 253.500 L 684 169 597.500 169 L 511 169 511 211.500 M 853.457 758.251 L 852.977 759.502 853.239 800.501 L 853.500 841.500 895.500 841.516 L 937.500 841.533 895.750 841.255 L 854 840.978 854 799.500 L 854 758.022 896.250 757.750 L 938.500 757.478 896.219 757.239 L 853.937 757 853.457 758.251" stroke="none" fill="#efbc8d" fill-rule="evenodd"/><path d="M 685 253.500 L 685 338 727 338 L 769 338 769 253.500 L 769 169 727 169 L 685 169 685 253.500 M 769 379 L 769 419 727 419 L 685 419 685 461 L 685 503 853.750 503 L 1022.500 503 1022.272 461.250 L 1022.045 419.500 937.522 419.244 L 853 418.989 853 378.994 L 853 339 811 339 L 769 339 769 379" stroke="none" fill="#000000" fill-rule="evenodd"/><path d="M 427 630 L 427 672 469 672 L 511 672 511 630 L 511 588 469 588 L 427 588 427 630 M 769 630 L 769 672 811 672 L 853 672 853 630 L 853 588 811 588 L 769 588 769 630 M 511 757.500 L 511 842 384 842 L 257 842 257 967 L 257 1092 513 1092 L 769 1092 769 1049.500 L 769 1007 940 1007 L 1111 1007 1111 881.500 L 1111 756 1024.500 756 L 938 756 938 714.500 L 938 673 895.500 673 L 853 673 853 715 L 853 757 726.500 757 L 600 757 600 715 L 600 673 555.500 673 L 511 673 511 757.500 M 853.239 799.250 L 853.500 841.500 895.750 841.761 L 938 842.022 938 799.511 L 938 757 895.489 757 L 852.978 757 853.239 799.250 M 600 884 L 600 926 642 926 L 684 926 684 884 L 684 842 642 842 L 600 842 600 884" stroke="none" fill="#3940b1" fill-rule="evenodd"/><path d="M 342 42 L 342 84 299.500 84 L 257 84 257 126.500 L 257 169 534.750 169.001 L 812.500 169.002 874.739 169.665 L 936.978 170.328 937.239 211.914 L 937.500 253.500 980.250 253.761 L 1023 254.021 1023 296.011 L 1023 338 1067 338 L 1111 338 1111 378.500 L 1111 419 1067 419 L 1023 419 1023 461 L 1023 503 980.500 503 L 938 503 938 545.489 L 938 587.978 895.977 588.239 L 853.954 588.500 853.954 630.500 L 853.954 672.500 938.477 672.756 L 1023 673.011 1023 631.016 L 1023 589.021 1067.250 588.760 L 1111.500 588.500 1111.500 504.500 L 1111.500 420.500 1153.500 420 L 1195.500 419.500 1195.754 294.250 L 1196.008 169 1109.004 169 L 1022 169 1022 127.164 L 1022 85.328 958.835 84.664 L 895.670 84 832.335 84 L 769 84 769 42 L 769 0 555.500 0 L 342 0 342 42 M 88 672.500 L 88 758 130 758 L 172 758 172 800 L 172 842 341.500 842 L 511 842 511 757.511 L 511 673.022 468.750 672.761 L 426.500 672.500 426.265 630.500 L 426.031 588.500 378.765 587.893 L 331.500 587.287 209.750 587.143 L 88 587 88 672.500 M 511.239 630.250 L 511.500 672.500 555.750 672.760 L 600 673.021 600 715.010 L 600 757 726.500 757 L 853 757 853 715 L 853 673 811 673 L 769 673 769 630.500 L 769 588 639.989 588 L 510.978 588 511.239 630.250" stroke="none" fill="#d01b0f" fill-rule="evenodd"/></svg>